<svg width="400" height="400" xmlns="http://www.w3.org/2000/svg">
 <!-- Created with Method Draw - http://github.com/duopixel/Method-Draw/ -->

 <g>
  <title>background</title>
  <rect fill="#fff" id="canvas_background" height="402" width="402" y="-1" x="-1"/>
  <g display="none" overflow="visible" y="0" x="0" height="100%" width="100%" id="canvasGrid">
   <rect fill="url(#gridpattern)" stroke-width="0" y="0" x="0" height="100%" width="100%"/>
  </g>
 </g>
 <g>
  <title>Layer 1</title>
  <ellipse stroke="#000" ry="193.49999" rx="194.499995" id="svg_12" cy="202.953115" cx="197.499976" stroke-opacity="null" stroke-width="1.5" fill="#4e4ee5"/>
  <path d="m97.250084,182.726578c0,0 0.375435,1.413925 1,5c1.289711,7.405182 1.875824,15.55925 0.5,31.499969c-1.003716,11.629379 -4.39653,22.425079 -5.999992,31.999985c-1.331604,7.951538 -1,13.499969 -1,18.499969c0,4 0,9.5 -1.5,15.5c-1,4 -1,5 -1,5.5c0,0.5 0,1 0,2.5c0,1.5 0.5,3 0.5,3.5c0,1.499969 0.308655,2.538025 0.5,2.999969c0.270599,0.65329 0.857063,1.605835 2,3c0.448296,0.546844 0.385124,2.013367 0.5,2.5c0.256874,1.088135 0.538063,1.308655 1,1.5c0.653282,0.270599 1.398499,0.628265 1.999992,1c1.344994,0.831268 3.5,1 7,1c2.999992,0 6.499992,0 11.999985,0c7.5,0 14.999992,0 21.499992,0c4.999985,0 7.999985,0 11.499985,0c4.5,0 7.999985,0 14.999985,0c4.5,0 10,0 14.499985,0c4,0 8,0 13,0c4.999985,0 11.499985,0 18.499985,0c6.999985,0 12.990204,-0.574005 16.499985,-1c4.988312,-0.605438 7.999985,-0.5 11.999985,-0.5c4,0 8.008453,0.048309 10.999985,-0.5c2.507736,-0.459625 5,-2 7.999985,-2.5c3,-0.5 5.5,-0.5 7,-0.5c0.5,0 1,0 1.5,0c0.5,0 1.5,0 4,0c2,0 3,0 4,0c0.5,0 1,0 2,0c0.5,0 1.5,0 2.5,0c1,0 2,0 2.5,0c0.5,0 1,-0.5 1,-1c0,-0.5 1.057922,-1.981903 1.5,-3.5c0.576385,-1.979309 0.871155,-6.015289 0.5,-10.499969c-0.752563,-9.093048 -3.310242,-15.572754 -5.5,-21c-1.84256,-4.566711 -2.565369,-9.490234 -3.5,-15.999969c-1.075317,-7.489578 -0.854828,-14.024002 -2,-20.499985c-0.887909,-5.021118 -1.5,-7.5 -1.5,-11c0,-4.499985 -0.244354,-7.514969 0,-9.499985c0.251892,-2.046112 0.5,-2.5 0.5,-3.5c0,-1.5 0,-3.5 0,-5c0,-1.5 0.246735,-3.43927 0.5,-4.999985c0.640747,-3.948349 0,-6.5 0,-8c0,-2 -0.486267,-4.323746 -1,-6.5c-0.459503,-1.946503 -0.5,-3.999985 -0.5,-4.499985c0,-0.5 0.122192,-1.007492 0,-2c-0.251892,-2.046112 -1,-3.5 -1,-4c0,-0.5 0,-1.5 0,-3c0,-1 0,-1.5 -0.5,-1.5c-1,0 -3,0 -5,0c-12.999985,0 -26.499969,0 -40.999954,0c-14.499985,0 -25.499985,0 -32.999969,0c-4.5,0 -6.953888,-0.248108 -9,-0.5c-2.481262,-0.305466 -5.5,0 -9.499985,0c-8.5,0 -14,1 -18.499985,1c-4.5,0 -7,0 -8.5,0c-1.5,0 -2.962891,0.248779 -5.5,0.5c-1.492706,0.147812 -2.999985,1 -6.499985,1.5c-3.5,0.5 -9,0.5 -11.499992,0.5c-2.5,0 -4,0 -5.5,0c-1.499992,0 -2.513367,-0.114883 -2.999992,0c-1.088127,0.256866 -2.007492,0.877823 -3,1c-2.046104,0.251892 -2.5,0.5 -3,0.5c-1,0 -2.999992,1 -3.999992,1l0,1" id="svg_35" fill-opacity="null" stroke-opacity="null" stroke-width="15" stroke="#ffffff" fill="none"/>
  <path d="m63.750114,200.726563c0.5,-1 2.242233,-3.351715 10.999992,-9.499985c6.810837,-4.781464 16.156311,-10.797043 23.999977,-16.999985c6.126106,-4.844666 9.999992,-9 11.499992,-10.5c1,-1 2.05793,-2.481903 2.5,-3.999985c0.576385,-1.97934 2.187729,-6.63652 4.499992,-11.5c2.21035,-4.649124 4.168831,-8.310287 6.999992,-10.999985c3.624939,-3.443817 9.19577,-5.648865 12.999985,-8c4.25325,-2.628654 7.976883,-5.052856 12.5,-6.999992c5.970276,-2.570122 14.391357,-5.284332 17.999985,-6.499992c1.953674,-0.658142 2.743134,-0.911873 3,-2c0.229752,-0.973251 0.746735,-1.939278 1,-3.499992c0.320374,-1.974174 -0.246735,-4.439278 -0.5,-6c-0.160187,-0.987091 0,-1.999992 0,-2.999992c0,-0.5 0,-1 0,-2c0,-0.5 0,-1 0,-2c0,-0.5 0,-1 0,-1.5c0,-0.5 0.5,-1.5 1,-2c0.5,-0.5 0.80864,-1.038055 0.999985,-1.499992c0.270599,-0.653282 0.11731,-1.076118 0.5,-2c0.270599,-0.653282 0.5,-1 1,-3c0.5,-2 0.28476,-2.566498 1,-4.499992c0.387894,-1.048584 0.885117,-2.513374 1,-3c0.256866,-1.088127 0.770248,-1.526749 1,-2.5c0.256866,-1.088127 1.346268,-2.592995 2,-3.499992c0.413452,-0.573631 0.5,-1 1,-1c0.5,0 1.456161,2.015335 2,3.499992c0.926132,2.528297 1.565033,5.182045 3,7.999992c1.951767,3.832832 5.051712,6.929138 8.499985,9.499992c4.57045,3.407494 8.082611,5.356773 12.5,8c7.140884,4.272873 11.10582,6.98455 13.999985,10.999985c2.614899,3.627983 4.15062,9.590813 7.499985,13.499992c3.709213,4.32917 7.617004,5.246468 10,6.499992c1.59549,0.839279 2.789856,3.57843 4,6.5c1.283554,3.098785 2.847473,7.744278 4.999985,12.499985c1.945038,4.297302 4.417542,8.056641 6.5,10.999985c1.443939,2.040848 2.581436,4.304749 4.499985,6.5c2.106812,2.410675 4.850769,5.210052 9,8c2.419403,1.626801 4.628265,2.898483 5,3.499985c0.831268,1.345001 1.440765,2.095139 3,3c1.93399,1.122345 3.5,1.5 4.5,2.5c0.5,0.5 1.5,1.5 3,2.5c1.5,1 2.940765,2.095139 4.5,3c0.96701,0.561172 1.412201,2.04895 2,3c1.314331,2.126633 2.168701,3.654984 2.999969,4.999985c0.371735,0.601501 0.839813,2.012909 1,3c0.253265,1.560715 0.846283,2.593002 1.5,3.5c0.826904,1.147263 1.067322,2.905731 2.5,4c1.256531,0.959747 3,1.5 3.5,2l0,0.5" id="svg_36" fill-opacity="null" stroke-opacity="null" stroke-width="15" stroke="#ffffff" fill="none"/>
  <path d="m134.250061,207.726563c0,1.5 -0.048294,2.508453 0.5,5.5c1.838501,10.03093 3.565826,18.487122 4.999985,25.999969c1.048203,5.491013 1,9 1,12c0,2.999985 0,6 0,8.5c0,1 0,1.5 0.5,1.5c5,0 12.992188,-1.749939 24.999985,-2c6.998474,-0.145752 11.499985,0 14.999985,0c2,0 3,0 4,0c0.5,0 2,0 7.499985,-1c5.5,-1 10,-2 12,-2c1,0 1.644897,-0.021454 1.5,-0.500015c-0.522415,-1.725418 -1.774475,-3.406998 -2.5,-5.999985c-0.819519,-2.928894 -0.5,-6.5 -0.5,-11.5c0,-4.499985 0,-9.999985 0,-15.999985c0,-6 -0.746735,-10.93927 -1,-12.499985c-0.080093,-0.493546 0,-1 -0.5,-2c-0.5,-1 -0.673096,-1.352737 -1.5,-2.5c-0.653732,-0.906998 -1,-3 -2,-5c-0.5,-1 -1.243134,-1.91188 -1.5,-2.999985c-0.114883,-0.486618 -0.346725,-0.729401 -1,-1c-0.461945,-0.191345 -1.049835,-0.272232 -4.5,0.5c-6.636505,1.485428 -13.989578,3.749893 -22.999969,3.999985c-10.995758,0.305206 -21.999985,0 -29.999985,0c-2.999985,0 -3.999985,0 -3.999985,0.5l1.5,0.5l2.499985,0.5" id="svg_37" fill-opacity="null" stroke-opacity="null" stroke-width="15" stroke="#ffffff" fill="none"/>
  <path d="m163.250031,205.726563c0,2 0,4.5 0,7c0,3.999985 0,5.499985 0,8.499985c0,3 -1.034912,6.994385 -1.5,10c-0.540649,3.493942 -1.495117,5.895111 -2,9.499985c-0.138702,0.990341 0,1.5 0,1l0,-1" id="svg_38" fill-opacity="null" stroke-opacity="null" stroke-width="15" stroke="#ffffff" fill="none"/>
  <path d="m141.750046,224.226547c1.5,0 5,0 10,0c4.999985,0 8.999985,0 12.499985,0c3,0 5.973358,0.249374 9.499985,0.5c2.992447,0.212662 5.5,0 7,0c3.5,0 4.5,0 5.5,0l0.5,0l0.5,0l0.5,0" id="svg_39" fill-opacity="null" stroke-opacity="null" stroke-width="15" stroke="#ffffff" fill="none"/>
  <path d="m238.249969,89.226662c0.5,1 1.61586,3.463837 2.5,6.499992c0.576385,1.97934 1.827286,5.392113 3,9.499992c1.39975,4.90313 2.747803,11.410027 4.999985,17.999985c1.688171,4.939629 3.248779,7.962883 3.5,10.499992c0.246338,2.487839 0,4.5 0,5.5c0,1 0.490814,2.856003 1,5.499985c0.37822,1.963913 0,4.5 0,5.5l0,0.5l0,0.5" id="svg_40" fill-opacity="null" stroke-opacity="null" stroke-width="15" stroke="#ffffff" fill="none"/>
  <path d="m261.249939,104.726646c0,0.5 -0.326599,2.932259 -1,6.999992c-0.983337,5.939949 -1,9.999992 -1,15.499992c0,4.999992 -0.485443,12.033821 0,15.499992c0.504883,3.604858 1.5,6.499985 1.5,8.999985l0,2l0,0.5l0,0.5" id="svg_41" fill-opacity="null" stroke-opacity="null" stroke-width="15" stroke="#ffffff" fill="none"/>
  <path d="m256.249939,78.726669c-0.999985,0 -1.246719,-0.939278 -1.499985,-2.5c-0.320358,-1.974167 -0.165909,-4.504585 0,-7.499992c0.250381,-4.52076 1.866623,-8.61636 4.499985,-11.499989c0.953644,-1.044289 1.540131,-1.344631 3,-1c3.264374,0.770615 8.029694,3.429871 14,5.999996c4.523132,1.947136 6.243134,3.411873 6.5,4.499992c0.459503,1.946495 -0.04895,3.412216 -1,4c-0.850647,0.525734 -2.411865,0.743126 -3.5,1c-0.486633,0.114876 -1.5,0 -1.5,-1c0,-2.5 -0.312286,-5.559036 0.5,-8.999992c1.089813,-4.61652 2.5,-6.499996 2.5,-7.499992c0,-0.5 0.525665,-0.658115 1,-0.5c2.371704,0.790565 3.774506,3.803207 5.5,6.499992c1.205139,1.883518 2.362,4.111366 4,5.999992c0.463287,0.534187 0.855072,1.021454 0.999969,1.5c0.52243,1.725426 0.96405,3.305519 2,4.5c0.732544,0.84462 0.997559,1.049271 0.5,1c-2.537109,-0.251221 -4.736115,-1.236153 -6.999969,-3.5c-2.263855,-2.263847 -3.916809,-6.574558 -1.5,-10.499992c3.725708,-6.051373 13.848175,-9.171608 23.499969,-10.999989c8.409058,-1.592968 12,-1 13,-1c0.5,0 0.561096,0.503746 0.5,1c-0.251892,2.046104 -0.394928,2.539215 -1,3.999996c-0.855713,2.065857 -1.373199,4.080593 -3,6.499996c-1.394958,2.074619 -2,3.499996 -2.5,3.999996l0,0.5" id="svg_42" fill-opacity="null" stroke-opacity="null" stroke-width="15" stroke="#ffffff" fill="none"/>
 </g>
</svg>