<svg width="400" height="400" xmlns="http://www.w3.org/2000/svg">
 <!-- Created with Method Draw - http://github.com/duopixel/Method-Draw/ -->

 <g>
  <title>background</title>
  <rect fill="#fff" id="canvas_background" height="402" width="402" y="-1" x="-1"/>
  <g display="none" overflow="visible" y="0" x="0" height="100%" width="100%" id="canvasGrid">
   <rect fill="url(#gridpattern)" stroke-width="0" y="0" x="0" height="100%" width="100%"/>
  </g>
 </g>
 <g>
  <title>Layer 1</title>
  <ellipse stroke="#000" ry="193.49999" rx="194.499995" id="svg_12" cy="202.953115" cx="197.499976" stroke-opacity="null" stroke-width="1.5" fill="#4e4ee5"/>
  <path d="m371.749847,202.226563c-1,0 -8.499969,0 -20.999969,0c-28.999969,0 -55.053741,-0.603195 -85.999939,-4.999985c-29.055237,-4.128128 -49.999954,-5.5 -63.999939,-5.5c-10.499985,0 -17.999985,0 -23.999985,0c-4.499985,0 -8.999985,0 -14.499985,0c-11.999985,0 -23.002686,0.269836 -36.499969,0c-12.507484,-0.250046 -20.999985,-0.5 -24.999977,-0.5c-1,0 -2,0 -3.5,0c-0.5,0 -3.796989,0.2565 -4.999992,1c-1.344994,0.831253 -3,1 -10.499992,1c-4.999992,0 -8.999992,0 -10.999992,0c-2.5,0 -5.999992,0 -12.499989,0c-6.499992,0 -10.499989,0 -11.499989,0c-1,0 -3.5,0 -5.499996,-0.5l-2,0l-0.5,0" id="svg_17" stroke-width="15" stroke="#ffffff" fill="none"/>
  <path d="m41.250134,191.726578c0,-0.5 1.033501,-1.243332 1.999996,-1.5c3.896084,-1.034668 6.456318,-5.075974 12.499992,-8.5c9.92981,-5.625702 22.482811,-10.536026 33.999969,-15.999985c8.487427,-4.026596 15.499985,-5.999985 17.499985,-6.499985c2,-0.5 5.576118,-0.117325 6.499992,-0.5c0.653282,-0.270599 1.359497,-1.655106 3,-3c1.394165,-1.142944 4.152702,-1.680832 6.499992,-3c2.179413,-1.224808 3,-2.5 4,-3.5c0.5,-0.5 0.406326,-1.103409 1.5,-2c1.394165,-1.142944 2.5,-1.5 3.5,-2.5c0.5,-0.5 0.5,-1 1,-1.5l0.5,0l0.5,-0.999985" id="svg_18" stroke-width="15" stroke="#ffffff" fill="none"/>
  <path d="m43.75013,186.726578c0,0 -0.335865,1.192932 1.5,4c2.137466,3.268219 6.177021,6.460449 10.999992,9.499985c5.675182,3.576614 12.571541,7.951141 19.499985,10.5c6.718674,2.471695 9.994034,2.021103 13.499985,3c5.490868,1.533112 12.504829,2.478363 21.499985,4.499985c11.005974,2.473557 21.949692,6.241531 30.999969,8c5.9711,1.160187 11.203018,1.315384 18.999985,4c4.656158,1.60318 10,4.999985 13.499985,7.499985l1.5,1l0.5,0.5" id="svg_19" stroke-width="15" stroke="#ffffff" fill="none"/>
  <path d="m126.750061,145.226608c0.5,0 1.605026,-0.425369 3,-2.499985c1.626801,-2.419403 2.803207,-4.774506 5.5,-6.5c3.767029,-2.410263 7.499985,-4 9.499985,-4.5l0.5,0l0.5,0" id="svg_20" stroke-width="15" stroke="#ffffff" fill="none"/>
  <path d="m134.250061,133.226624c0.5,2 0.5,5.5 0.5,11.499985c0,7.5 0,16.999985 0,25.499985c0,8 -0.295609,13.514587 0,16.499985c0.251221,2.537109 0.846283,3.093002 1.5,4c0.413437,0.573624 0.666336,0.876556 0.999985,1.5c1.203003,2.247833 1.146454,4.146454 1.5,4.5c0.353546,0.353546 1,0 1.5,0c2,0 3.086548,-0.073639 3.5,0.5c0.653717,0.906982 0.906204,2.049698 2,3.999985c2.307358,4.114136 6.039597,9.469482 9.499985,14c3.034958,3.973526 4.743134,5.911865 5,6.999985c0.114883,0.486618 -0.207108,1.292892 0.5,2c0.353546,0.353546 0.885315,0.129669 2,1c2.297989,1.79422 5.440765,3.595139 7,4.5c0.966995,0.561172 0.727341,1.29155 -2.5,-2c-7.709122,-7.862534 -14.920502,-18.143097 -22.499985,-27.499985c-7.427673,-9.169479 -22.47747,-29.013931 -28.999977,-39.499954c-4.982819,-8.010712 -6.499992,-14.5 -7.499992,-14.5c-1,0 0.7118,5.450989 2,11.5c1.797813,8.442017 2.374611,18.142975 4.499992,25.999969c1.940941,7.175156 5.486916,12.257111 6.5,18.499985c0.320366,1.974182 0.5,4 0.5,5.5c0,1 0,1.5 0,2.5c0,0.5 0.16008,-0.074615 -2,-4.5c-3.728485,-7.638611 -7.618912,-14.761932 -11.499992,-19.999985c-2.744339,-3.703857 -5.459473,-7.529282 -7.999992,-10.999985c-1.476646,-2.017303 -1.683868,-3.781952 -3.5,-5.5c-1.309624,-1.238892 -1.499992,2.5 -1.499992,9c0,6.499985 0,12.999985 0,16.499985c0,3.499985 -0.248779,6.962875 -0.5,9.499985c-0.049271,0.497574 -1.084251,0.082275 -4.5,-3.5c-5.129417,-5.379486 -8.999992,-11.499985 -10.499992,-13.499985l-0.5,-0.5l0,-0.5" id="svg_21" stroke-width="15" stroke="#ffffff" fill="none"/>
  <path d="m76.250107,190.726578c0,-0.5 0.5,-1 1,-2.5l0.499992,-1l0.5,0" id="svg_22" stroke-width="15" stroke="#ffffff" fill="none"/>
 </g>
</svg>