<svg width="400" height="400" xmlns="http://www.w3.org/2000/svg">
 <!-- Created with Method Draw - http://github.com/duopixel/Method-Draw/ -->

 <g>
  <title>background</title>
  <rect fill="#fff" id="canvas_background" height="402" width="402" y="-1" x="-1"/>
  <g display="none" overflow="visible" y="0" x="0" height="100%" width="100%" id="canvasGrid">
   <rect fill="url(#gridpattern)" stroke-width="0" y="0" x="0" height="100%" width="100%"/>
  </g>
 </g>
 <g>
  <title>Layer 1</title>
  <ellipse stroke="#000" ry="193.49999" rx="194.499995" id="svg_12" cy="202.953115" cx="197.499976" stroke-opacity="null" stroke-width="1.5" fill="#4e4ee5"/>
  <path d="m372.249847,187.726578c-0.5,0.5 -6.997803,1.522522 -11.999969,2c-16.493073,1.57431 -29.474182,3.99971 -43.999969,4.5c-13.991699,0.481903 -31.499969,0 -49.499969,0c-17.999985,0 -37.499969,0.5 -56.499954,0.5c-16.499985,0 -31.564713,-1.567123 -50.499954,0c-12.124054,1.003418 -20.999985,2.5 -29.999969,2.5c-10.999992,0 -22.057953,-0.202179 -30.499977,-2c-4.032669,-0.858795 -6.499992,-1 -7.999992,-1c-3,0 -6.999992,0 -12.999992,0c-2.999992,0 -5.499992,0 -7.499992,0c-2.5,0 -5.499992,0 -8.499992,0c-2.999996,0 -5.453884,-0.248108 -7.499992,-0.5c-1.985016,-0.24437 -6.030403,0.179642 -9.499992,-0.5c-2.023102,-0.396301 -3.729397,-1.346725 -3.999996,-2c-0.191341,-0.461945 -0.542908,-0.21022 -1.5,-0.5c-1.725418,-0.522415 -3.499996,-1 -5.999992,-1c-2.5,0 -3.999998,0 -4.499998,0l0.5,0l0.5,0l2.499998,0" id="svg_24" fill-opacity="null" stroke-opacity="null" stroke-width="15" stroke="#ffffff" fill="none"/>
  <path d="m366.749847,184.726578c0,0 -0.543701,0.300858 -4.999969,-0.5c-8.11618,-1.458618 -21.131073,-4.263214 -39.999969,-7.999985c-33.785797,-6.690903 -49.116791,-13.684235 -62.999969,-18.999985c-11.099075,-4.249741 -20.147476,-6.575607 -24.999969,-8.5c-1.039291,-0.412155 -1,0 -0.5,0.5c0.5,0.5 2,1 3,1.5l1,0l1,0" id="svg_25" fill-opacity="null" stroke-opacity="null" stroke-width="15" stroke="#ffffff" fill="none"/>
  <path d="m365.749847,185.226578c0,0.5 -0.106384,2.659531 -2.499969,8c-3.019379,6.73671 -11.762665,20.485825 -21.5,26.999969c-8.922882,5.969284 -21.828644,10.006973 -32.999969,13.5c-9.375793,2.931595 -16.931244,4.779816 -22.499969,5.999985c-2.970917,0.650955 -6,1 -11,1c-7.5,0 -19.499985,0 -24.499985,0c-1.5,0 -2.076126,0.38269 -3,0c-0.653275,-0.270599 -3.499985,-3 -5.499985,-5.5l-0.5,-1" id="svg_26" fill-opacity="null" stroke-opacity="null" stroke-width="15" stroke="#ffffff" fill="none"/>
  <path d="m233.749969,157.726608c2,5.999985 4.317886,13.931412 6,22.499969c1.852707,9.437561 3.04715,17.58728 5,26.499985c1.220154,5.568771 4.201843,9.961304 6.499985,22.499985c0.548309,2.991547 0.860748,3.76149 1.5,2.5c2.972672,-5.866287 2.744324,-13.861679 3.499985,-19.999985c0.366547,-2.977524 0.580841,-6.042404 0,-10c-0.758026,-5.16481 -3.99852,-11.442657 -4.499985,-17.999985c-0.457504,-5.982513 0.249741,-10.982971 0.5,-16.499985c0.29454,-6.493301 -0.353546,-8.646439 0,-8.999985c0.353546,-0.353546 2,2.5 3,3.499985c1.499985,1.499985 5.438614,7.817596 8.999985,17c4.002228,10.319016 3.324951,20.88707 7.5,28.999969c0.323547,0.628738 0.377808,1.007492 0.5,2c0.251892,2.046112 1,4 1.5,5.5c0.5,1.499985 1,1.499985 1,0.999985c0,-6.999985 0,-16.999985 0,-27.999969c0,-9.999985 -0.761353,-19.044662 -2,-24.999985c-0.8396,-4.036697 -0.5,-4.999985 -1,-4.999985c-0.5,0 1.286987,5.911835 3,11.999985c1.806793,6.421494 2.757813,12.033539 3.5,16.499985c0.755646,4.547424 1.599548,8.032288 2,10.5c0.506531,3.121429 1.165985,4.11467 2,5.999985c0.729309,1.648666 0.974274,2.149353 1.5,3c0.587799,0.95105 1.5,0.5 3,0.5c1,0 2,0.5 3,0.5c0.5,0 1.273438,-2.422318 1.999969,-5.5c0.812286,-3.440964 2.101257,-8.880615 3.5,-17.499985c0.884644,-5.451355 0.5,-8.499985 0.5,-8.999985c0,-0.5 -0.033936,0.011749 0.5,1.5c2.351746,6.555084 5.753906,14.385071 9.5,22.999969c3.221161,7.4077 5.248108,13.453888 5.5,15.5c0.061096,0.496246 0.038391,0.999252 0,0c-0.250183,-6.514404 -1.721252,-13.46434 -2.5,-18.999985c-0.700012,-4.975937 -1.560669,-7.939346 -0.5,-9c0.353546,-0.353546 2.761414,4.14183 7,10.999985c4.738892,7.667664 8.294983,15.5896 11,21.499985c1.395844,3.04985 1.999969,3.5 1.999969,4c0,0.5 0,-0.5 0,-4c0,-4.999985 -0.908142,-9.535629 -2.499969,-13.499985c-1.418884,-3.533661 -2.5,-6.5 -2.5,-8.5c0,-0.999985 -0.38269,-1.576111 0,-2.499985c0.270599,-0.653275 1.962891,-1.248779 4.499969,-1.5c4.975677,-0.492691 8.5,2 10,3.5c1.5,1.499985 1.5,1.999985 1.5,2.499985c0,1 0,3.5 0,4.5c0,1 0,2 0.5,1.5c1.5,-1.5 2.912201,-2.04895 3.5,-3c0.262878,-0.425323 0.334015,-1.614685 -0.5,-3.5c-1.458649,-3.297318 -4.323761,-5.486237 -6.5,-5.999985c-2.433136,-0.574387 -9.577545,-0.78476 -13.999969,-2.5c-4.591217,-1.780685 -7.279022,-3.038818 -10,-5c-2.294525,-1.653809 -5.159271,-4.110657 -8,-5.5c-1.619446,-0.792038 -2.025818,-1.320343 -4,-0.999985c-1.56073,0.253265 -5.70343,3.594055 -9,5.499985c-2.164276,1.251297 -3.673065,3.852737 -4.499969,5c-0.653717,0.906998 -1.5,1.5 -2,1.5c-0.5,0 -1.911865,0.743134 -3,1c-0.973236,0.229752 -1.993469,2.878555 -2.5,5.999985c-0.560638,3.454803 0.748413,8.926971 1.5,20.499985c0.097198,1.496841 0,2 0,1.5c0,-1 -0.246735,-1.939285 -0.5,-3.5c-0.160187,-0.987076 0,-1.999985 0,-2.499985c0,-0.5 -0.867889,0.117706 -4,3.499985c-2.88266,3.112915 -6.06601,5.377655 -8,6.5c-1.559235,0.904861 -2,1 -2.5,1.5c-0.5,0.5 -0.411865,1.243134 -1.5,1.5c-0.486633,0.114883 -1.229401,0.346725 -1.5,1c-0.191345,0.461945 0,1 0.5,1c10,0 17,0 24,0c6.999969,0 12.999969,0 15.999969,0c2,0 4.5,0 6.5,0c1,0 1.5,0 2.5,0c0.5,0 -0.504333,0.207794 -5.5,0c-6.015594,-0.250214 -11,-1.5 -14.5,-1.5c-1.999969,0 -4.243439,-0.540253 -5.499969,-1.5c-1.432678,-1.094269 -3.5,-3.5 -5,-5c-0.5,-0.5 2,-0.5 5.5,-0.5c5.499969,0 9.999969,1 10.499969,1c1.5,0 5.968994,-1.249146 9,-1.5c0.996582,-0.082474 1.5,0 2,0c0.5,0 0.513367,-0.385117 1,-0.5c1.088135,-0.256866 3.206024,-0.484268 5,-1.5c0.615326,-0.348389 1.38269,-1.076126 1,-2c-0.270599,-0.653275 -2,-0.499985 -8.5,-0.499985c-10,0 -20.572205,0.538605 -29.999969,-1c-4.549591,-0.742493 -7.481628,-2.5802 -9.5,-3c-2.977661,-0.619308 -5.5,-0.5 -6.5,-0.5c-0.5,0 0,0 0,0.5l0.5,1l0.5,0" id="svg_27" fill-opacity="null" stroke-opacity="null" stroke-width="15" stroke="#ffffff" fill="none"/>
 </g>
</svg>